<svg width="187" height="80" viewBox="0 0 187 80" fill="none" xmlns="http://www.w3.org/2000/svg">
<path d="M18.6075 1.72696L29.962 1.6714L12.4849 31.1184L24.3404 50.9534L18.6631 60.4542L1.35303 30.9517L18.6075 1.72696Z" fill="#FFC800"/>
<path d="M29.9088 1.81602L47.1076 31.1519L35.4748 50.9869L41.0964 79.3782L29.9088 60.3766L18.7213 60.4322L36.0314 31.1519L24.2872 11.1502L29.9088 1.81602Z" fill="#004C92"/>
<path d="M50.7315 9.70672L50.8665 55.3674H59.5022V28.0249L73.4002 43.6492L87.973 27.6208V55.5021L96.4738 55.3674L96.6087 9.84142H94.3148L73.2838 32.6044L53.1603 9.84142L50.7315 9.70672Z" fill="#140D0F"/>
<path d="M103.787 9.84142L103.819 55.3109L112.423 55.2303V35.6456L128.668 35.5974C146.908 31.7785 138.977 8.60215 128.618 9.84142H103.787ZM127.672 17.2488C132.68 18.6222 134.42 24.785 127.825 28.1562L112.562 28.4247L112.423 17.3785L127.672 17.2488Z" fill="#140D0F"/>
<path d="M142.84 9.84142L142.882 17.7883H159.032L158.762 55.3003H167.052L167.262 17.7883L183.05 17.6536L182.915 9.84142H142.84Z" fill="#140D0F"/>
</svg>
