<svg width="149" height="56" viewBox="0 0 149 56" fill="none" xmlns="http://www.w3.org/2000/svg">
<path d="M0 19.7203V27.8049L21.8732 25.4059V16.6556L0 19.7203ZM6.98011 28.2966V56H14.9881V27.4806L6.98011 28.2966ZM24.8273 16.2417V56H33.2654V15.0588L24.8273 16.2417ZM34.8375 14.8383V23.9844L47.0222 22.6477V13.1313L34.8375 14.8383ZM34.8375 30.7917V40.1044L42.836 39.6694V30.1053L34.8375 30.7917ZM34.8375 46.8169V56H47.0222V46.4505L34.8375 46.8169ZM78.5334 8.70152V56H89.5952V7.15127L78.5334 8.70152ZM91.6609 6.86146V17.7412L107.781 15.9739V4.60197L91.6609 6.86146ZM91.6609 25.9235V37.0047L102.227 36.4294V25.0213L91.6609 25.9235ZM91.6609 45.1043V56H107.781V44.619L91.6609 45.1043ZM50.2463 12.6788V56H59.8583V11.3313L50.2463 12.6788ZM61.6523 46.0104V55.9996H75.6048V45.5905L61.6523 46.0104ZM143.923 4.06714C140.427 0.773725 135.301 -0.577144 129.694 0.22597V12.2929C131.964 12.1672 133.804 13.0073 134.624 14.6988C135.918 17.3657 134.583 21.367 131.433 25.0743C126.571 30.7951 113.641 42.5047 113.641 42.5047L132.202 41.8962C143.543 30.849 147.615 24.1433 148.346 15.7741C148.73 11.3464 147.118 7.08022 143.923 4.06714ZM149 56V43.3737L111.354 44.5045L149 56ZM111.354 44.5041L111.357 55.9996H149L111.354 44.5041ZM127.53 0.496833C116.593 2.81919 111.223 10.8417 111.842 23.9323L123.503 22.9005C122.972 15.505 125.241 13.7506 127.535 12.786L127.53 0.496833Z" fill="#141414"/>
</svg>
